<?xml version="1.0" encoding="utf-8"?>
<!-- Generator: Adobe Illustrator 16.0.0, SVG Export Plug-In . SVG Version: 6.00 Build 0)  -->
<!DOCTYPE svg PUBLIC "-//W3C//DTD SVG 1.1//EN" "http://www.w3.org/Graphics/SVG/1.1/DTD/svg11.dtd">
<svg version="1.1" id="Warstwa_1" xmlns="http://www.w3.org/2000/svg" xmlns:xlink="http://www.w3.org/1999/xlink" x="0px" y="0px"
	 width="415.574px" height="72.371px" viewBox="0 0 415.574 72.371" enable-background="new 0 0 415.574 72.371"
	 xml:space="preserve">
<g>
	<path fill="#FFFFFF" d="M126.065,14.379v40.705c0,0.472-0.314,0.785-0.786,0.785h-3.144c-0.473,0-0.786-0.313-0.786-0.785V14.379
		c0-6.365-2.594-9.9-7.466-9.9c-4.479,0-7.464,3.535-7.464,9.9v40.705c0,0.472-0.313,0.785-0.786,0.785h-3.144
		c-0.471,0-0.786-0.313-0.786-0.785V14.379c0-6.365-3.143-9.9-7.465-9.9c-4.95,0-7.465,3.535-7.465,9.9v40.705
		c0,0.472-0.314,0.785-0.786,0.785h-3.143c-0.473,0-0.786-0.313-0.786-0.785V14.379c0-8.8,4.479-14.301,12.18-14.301
		c5.265,0,7.779,2.829,9.822,6.6c2.044-3.771,4.715-6.6,9.821-6.6C121.508,0.079,126.065,5.579,126.065,14.379z"/>
	<path fill="#FFFFFF" d="M133.129,44.396c0-6.208,4.792-11.315,11.944-11.315h7.622v-5.107c0-4.558-2.75-7.858-7.387-7.858
		c-4.165,0-6.758,2.907-7.072,7.229c-0.079,0.55-0.315,0.786-0.786,0.786h-2.908c-0.471,0-0.786-0.314-0.786-0.786
		c0.394-6.679,4.793-11.551,11.552-11.551c7.229,0,11.865,5.265,11.865,12.18v16.422c0,6.993-4.715,12.18-11.943,12.18
		C137.922,56.576,133.129,51.39,133.129,44.396z M152.695,44.396v-6.993h-7.622c-4.636,0-7.465,3.144-7.465,6.993
		c0,4.637,2.829,7.857,7.622,7.857C149.945,52.255,152.695,49.033,152.695,44.396z"/>
	<path fill="#FFFFFF" d="M165.026,55.083V28.131c0-7.072,4.715-12.337,11.708-12.337s11.709,5.265,11.709,12.337v26.953
		c0,0.472-0.315,0.785-0.786,0.785h-2.907c-0.472,0-0.786-0.313-0.786-0.785V28.131c0-4.793-2.75-8.094-7.229-8.094
		c-4.479,0-7.229,3.3-7.229,8.094v26.953c0,0.472-0.314,0.785-0.785,0.785h-2.908C165.341,55.869,165.026,55.555,165.026,55.083z"/>
	<path fill="#FFFFFF" d="M195.746,44.396c0-6.208,4.793-11.315,11.943-11.315h7.622v-5.107c0-4.558-2.75-7.858-7.388-7.858
		c-4.164,0-6.758,2.907-7.07,7.229c-0.079,0.55-0.314,0.786-0.786,0.786h-2.907c-0.472,0-0.786-0.314-0.786-0.786
		c0.394-6.679,4.793-11.551,11.551-11.551c7.229,0,11.866,5.265,11.866,12.18v16.422c0,6.993-4.715,12.18-11.943,12.18
		C200.539,56.576,195.746,51.39,195.746,44.396z M215.311,44.396v-6.993h-7.622c-4.636,0-7.465,3.144-7.465,6.993
		c0,4.637,2.829,7.857,7.622,7.857C212.561,52.255,215.311,49.033,215.311,44.396z"/>
	<path fill="#FFFFFF" d="M250.901,28.131v31.904c0,7.385-4.793,12.336-12.021,12.336c-6.993,0-11.787-4.951-12.022-12.336
		c0-0.473,0.313-0.787,0.786-0.787h2.906c0.473,0,0.786,0.235,0.786,0.787c0.235,5.027,3.064,8.014,7.544,8.014
		c4.715,0,7.542-2.985,7.542-8.014v-8.882c-1.885,2.358-4.478,3.931-7.542,3.931c-7.229,0-12.022-5.265-12.022-12.336V28.131
		c0-7.072,4.794-12.337,12.022-12.337S250.901,21.059,250.901,28.131z M246.421,42.748V28.131c0-4.715-2.828-8.015-7.542-8.015
		c-4.715,0-7.544,3.3-7.544,8.015v14.617c0,4.713,2.829,8.014,7.544,8.014C243.593,50.761,246.421,47.46,246.421,42.748z"/>
	<path fill="#FFFFFF" d="M258.753,44.24V28.288c0-7.229,4.637-12.415,12.022-12.415c7.229,0,12.021,5.186,12.021,12.101
		c0,6.521-4.792,11.472-12.021,11.472h-7.545v4.794c0,4.715,2.831,8.016,7.545,8.016c4.398,0,7.308-3.223,7.465-8.016
		c0-0.551,0.314-0.785,0.785-0.785h2.908c0.471,0,0.786,0.313,0.786,0.785c-0.236,7.387-5.029,12.336-11.944,12.336
		C263.546,56.576,258.753,51.626,258.753,44.24z M270.776,35.125c4.714,0,7.543-2.986,7.543-7.15c0-4.558-2.829-7.779-7.543-7.779
		c-4.871,0-7.545,3.221-7.545,8.093v6.836H270.776z"/>
	<path fill="#FFFFFF" d="M330.177,28.131v26.953c0,0.472-0.314,0.785-0.787,0.785h-2.906c-0.473,0-0.786-0.313-0.786-0.785V28.131
		c0-4.715-2.436-8.015-6.757-8.015c-4.322,0-6.758,3.3-6.758,8.015v26.953c0,0.472-0.314,0.785-0.787,0.785h-2.906
		c-0.473,0-0.786-0.313-0.786-0.785V28.131c0-4.715-2.436-8.015-6.758-8.015c-4.321,0-6.757,3.3-6.757,8.015v26.953
		c0,0.472-0.315,0.785-0.786,0.785h-2.908c-0.471,0-0.785-0.313-0.785-0.785V28.131c0-7.072,4.4-12.337,11.236-12.337
		c4.086,0,7.309,2.436,9.036,5.894c1.65-3.458,4.871-5.894,8.959-5.894C325.776,15.794,330.177,21.059,330.177,28.131z"/>
	<path fill="#FFFFFF" d="M338.027,44.24V28.288c0-7.229,4.637-12.415,12.022-12.415c7.229,0,12.021,5.186,12.021,12.101
		c0,6.521-4.793,11.472-12.021,11.472h-7.543v4.794c0,4.715,2.829,8.016,7.543,8.016c4.399,0,7.309-3.223,7.465-8.016
		c0-0.551,0.313-0.785,0.786-0.785h2.907c0.472,0,0.784,0.313,0.784,0.785c-0.233,7.387-5.027,12.336-11.942,12.336
		C342.821,56.576,338.027,51.626,338.027,44.24z M350.05,35.125c4.715,0,7.543-2.986,7.543-7.15c0-4.558-2.828-7.779-7.543-7.779
		c-4.871,0-7.543,3.221-7.543,8.093v6.836H350.05z"/>
	<path fill="#FFFFFF" d="M368.982,55.083V28.131c0-7.072,4.715-12.337,11.709-12.337c6.992,0,11.707,5.265,11.707,12.337v26.953
		c0,0.472-0.313,0.785-0.785,0.785h-2.908c-0.471,0-0.784-0.313-0.784-0.785V28.131c0-4.793-2.751-8.094-7.229-8.094
		s-7.229,3.3-7.229,8.094v26.953c0,0.472-0.314,0.785-0.785,0.785h-2.908C369.297,55.869,368.982,55.555,368.982,55.083z"/>
	<path fill="#FFFFFF" d="M415.574,52.49v2.75c0,0.473-0.313,0.786-0.786,0.786h-1.021c-6.993,0-11.079-4.873-11.079-13.2V20.823
		h-4.872c-0.472,0-0.785-0.314-0.785-0.786v-2.671c0-0.472,0.313-0.786,0.785-0.786h4.872V6.365c0-0.472,0.314-0.786,0.785-0.786
		h2.908c0.471,0,0.785,0.314,0.785,0.786V16.58h6.68c0.471,0,0.785,0.314,0.785,0.786v2.671c0,0.472-0.314,0.786-0.785,0.786h-6.68
		v22.002c0,5.813,2.278,8.879,6.601,8.879h1.021C415.338,51.705,415.574,52.019,415.574,52.49z"/>
</g>
<g>
	<path fill="#E25822" d="M28.119,33.475c4.087-2.201,6.994-6.601,6.994-12.652v-6.286C35.113,5.972,29.612,0,21.519,0
		C13.582,0,8.161,5.972,8.161,14.537v13.829h-7.31C0.383,28.366,0,28.749,0,29.217v4.934c0,0.468,0.383,0.851,0.852,0.851h7.31
		v19.767c0,0.707,0.393,1.1,1.021,1.102h5.028c0.629,0,1.022-0.394,1.022-1.101V35.126h6.365l7.464,19.802
		c0.158,0.628,0.472,0.94,1.101,0.94h5.343c0.707,0,1.257-0.471,1.021-1.178L28.119,33.475z M27.963,20.981
		c0,4.636-2.594,7.622-6.68,7.622h-6.05v-14.38c0-4.558,2.593-7.544,6.365-7.544c3.771,0,6.364,2.986,6.364,7.544V20.981z"/>
	<path fill="#E25822" d="M73.405,26.088h-7.247c-0.004,0-0.008-0.001-0.013-0.001h-9.272c-0.707,0-1.1,0.393-1.1,1.1v4.166
		c0,0.628,0.393,1.021,1.1,1.021h5.421V43.06c0,4.087-2.75,6.993-6.679,6.993c-4.008,0-6.758-2.906-6.758-7.544V14.222
		c0-4.636,2.436-7.544,6.443-7.544c3.772,0,6.13,2.83,6.365,7.623c0.079,0.707,0.473,1.1,1.101,1.1h5.028
		c0.628,0,1.021-0.393,1.021-1.1C68.58,5.893,63.158,0,55.301,0c-8.172,0-13.594,5.893-13.594,14.458v27.738
		c0,8.565,5.657,14.537,13.83,14.536c8.172,0,13.83-5.973,13.83-14.066V32.264h4.038c0.468,0,0.851-0.383,0.851-0.851v-4.474
		C74.256,26.471,73.873,26.088,73.405,26.088z"/>
</g>
</svg>
